<?xml version="1.0" encoding="UTF-8"?>
<level>
  <owner>stolbitsa</owner>
  <repo>luch-solnca-zolotogo</repo>
  <version>v1.0.0</version>
  <next number="1" owner="stolbitsa" repo="inca-roads-1"/>
  <readme>
    <ru>17ec3dc6623b58218bef227a6bbadaf364367b4a33814f1552e1fed6ca6c1a5f</ru>
    <en>715a4090bc1d616406f3e187d36b60a9ae4e812142b7dd30352b5bb1aa0113d6</en>
  </readme>
  <license>b1b99f5538d1fd3702219bff50c665196dfa42f6ee755c37fe41a6178d6bc6e5</license>
  <exercise number="1">
    <scale>major</scale>
    <bpm>83</bpm>
    <lowestNote>5</lowestNote>
    <tonalities>6</tonalities>
    <video name="10-luch-solnca-zolotogo-1.mp4" size="1878930" type="video/mp4" volume="1">f721abbc1082124114573e634ffd320a642fd1873ac928dd8e8f2e4ddf7a5685</video>
    <notes>
      <note number="1" values="38" ticks="13" durationTicks="181" ppq="96" velocity="0.832"/>
      <note number="2" values="38" ticks="210" durationTicks="71" ppq="96" velocity="0.884"/>
      <note number="3" values="28" ticks="283" durationTicks="46" ppq="96" velocity="0.717"/>
      <note number="4" values="18" ticks="336" durationTicks="47" ppq="96" velocity="0.759"/>
      <note number="5" values="38" ticks="371" durationTicks="43" ppq="96" velocity="0.719"/>
      <note number="6" values="58" ticks="420" durationTicks="167" ppq="96" velocity="0.819"/>
      <note number="7" values="18" ticks="609" durationTicks="128" ppq="96" velocity="0.844"/>
    </notes>
  </exercise>
  <exercise number="2">
    <scale>major</scale>
    <bpm>162</bpm>
    <lowestNote>5</lowestNote>
    <tonalities>10</tonalities>
    <video name="16-bar-song-2.mp4" size="1960334" type="video/mp4" volume="0.581">9faf5fe7ee9a045469ceae00f006510281d49476062780d30a807dad5b85a6db</video>
    <notes>
      <note number="1" values="38" ticks="196" durationTicks="25" ppq="96" velocity="0.832"/>
      <note number="2" values="38" ticks="245" durationTicks="23" ppq="96" velocity="0.884"/>
      <note number="3" values="38" ticks="293" durationTicks="30" ppq="96" velocity="0.717"/>
      <note number="4" values="38" ticks="339" durationTicks="33" ppq="96" velocity="0.759"/>
      <note number="5" values="38" ticks="389" durationTicks="86" ppq="96" velocity="0.719"/>
      <note number="6" values="58" ticks="484" durationTicks="77" ppq="96" velocity="0.819"/>
      <note number="7" values="58" ticks="579" durationTicks="28" ppq="96" velocity="0.844"/>
      <note number="8" values="58" ticks="630" durationTicks="30" ppq="96" velocity="0.852"/>
      <note number="9" values="28" ticks="676" durationTicks="93" ppq="96" velocity="0.844"/>
      <note number="10" values="18" ticks="773" durationTicks="92" ppq="96" velocity="0.844"/>
    </notes>
  </exercise>
  <exercise number="3">
    <scale>major</scale>
    <bpm>162</bpm>
    <lowestNote>5</lowestNote>
    <tonalities>10</tonalities>
    <video name="16-bar-song-3.mp4" size="1963056" type="video/mp4" volume="0.583">cf2caebc72438241096e212477dc2cc1429b5ea97135947524802985b42de32b</video>
    <notes>
      <note number="1" values="38" ticks="146" durationTicks="25" ppq="96" velocity="0.832"/>
      <note number="2" values="38" ticks="195" durationTicks="23" ppq="96" velocity="0.884"/>
      <note number="3" values="38" ticks="243" durationTicks="46" ppq="96" velocity="0.717"/>
      <note number="4" values="28" ticks="289" durationTicks="33" ppq="96" velocity="0.759"/>
      <note number="5" values="28" ticks="339" durationTicks="94" ppq="96" velocity="0.719"/>
      <note number="6" values="18" ticks="434" durationTicks="79" ppq="96" velocity="0.819"/>
      <note number="7" values="18" ticks="532" durationTicks="74" ppq="96" velocity="0.844"/>
      <note number="8" values="18" ticks="626" durationTicks="93" ppq="96" velocity="0.852"/>
      <note number="9" values="5" ticks="724" durationTicks="92" ppq="96" velocity="0.844"/>
    </notes>
  </exercise>
  <exercise number="4">
    <scale>major</scale>
    <bpm>162</bpm>
    <lowestNote>5</lowestNote>
    <tonalities>10</tonalities>
    <video name="16-bar-song-4.mp4" size="1950217" type="video/mp4" volume="0.585">e86071928f51a348e99084b32ddcab00ba9abdb4ac230ca7b4ff728663e4aa0e</video>
    <notes>
      <note number="1" values="38" ticks="148" durationTicks="25" ppq="96" velocity="0.832"/>
      <note number="2" values="38" ticks="197" durationTicks="23" ppq="96" velocity="0.884"/>
      <note number="3" values="38" ticks="245" durationTicks="25" ppq="96" velocity="0.717"/>
      <note number="4" values="38" ticks="291" durationTicks="27" ppq="96" velocity="0.759"/>
      <note number="5" values="38" ticks="341" durationTicks="26" ppq="96" velocity="0.719"/>
      <note number="6" values="38" ticks="387" durationTicks="27" ppq="96" velocity="0.819"/>
      <note number="7" values="58" ticks="435" durationTicks="78" ppq="96" velocity="0.844"/>
      <note number="8" values="58" ticks="534" durationTicks="29" ppq="96" velocity="0.852"/>
      <note number="9" values="58" ticks="582" durationTicks="46" ppq="96" velocity="0.844"/>
      <note number="10" values="28" ticks="630" durationTicks="92" ppq="96" velocity="0.844"/>
      <note number="11" values="18" ticks="725" durationTicks="95" ppq="96" velocity="0.844"/>
    </notes>
  </exercise>
  <exercise number="5">
    <scale>major</scale>
    <bpm>162</bpm>
    <lowestNote>5</lowestNote>
    <tonalities>10</tonalities>
    <video name="16-bar-song-5.mp4" size="1826857" type="video/mp4" volume="0.593">d331e4fbb871100a3a0f625140ff4ddc4dd15955a56fe9b188cee531d2992dd0</video>
    <notes>
      <note number="1" values="38" ticks="470" durationTicks="25" ppq="96" velocity="0.832"/>
      <note number="2" values="38" ticks="519" durationTicks="23" ppq="96" velocity="0.884"/>
      <note number="3" values="38" ticks="567" durationTicks="25" ppq="96" velocity="0.717"/>
      <note number="4" values="38" ticks="613" durationTicks="27" ppq="96" velocity="0.759"/>
      <note number="5" values="38" ticks="663" durationTicks="26" ppq="96" velocity="0.719"/>
      <note number="6" values="38" ticks="709" durationTicks="27" ppq="96" velocity="0.819"/>
      <note number="7" values="58" ticks="757" durationTicks="78" ppq="96" velocity="0.844"/>
      <note number="8" values="58" ticks="856" durationTicks="29" ppq="96" velocity="0.852"/>
      <note number="9" values="58" ticks="904" durationTicks="46" ppq="96" velocity="0.844"/>
      <note number="10" values="28" ticks="952" durationTicks="92" ppq="96" velocity="0.844"/>
      <note number="11" values="18" ticks="1047" durationTicks="95" ppq="96" velocity="0.844"/>
    </notes>
  </exercise>
  <exercise number="6">
    <scale>major</scale>
    <bpm>162</bpm>
    <lowestNote>5</lowestNote>
    <tonalities>10</tonalities>
    <video name="16-bar-song-6.mp4" size="1907731" type="video/mp4" volume="0.588">2b717b81fe0c595767b3fc9495c048504f111d15ab0d223ff86435a3a7ea7097</video>
    <notes>
      <note number="1" values="38" ticks="582" durationTicks="25" ppq="96" velocity="0.832"/>
      <note number="2" values="38" ticks="631" durationTicks="23" ppq="96" velocity="0.884"/>
      <note number="3" values="38" ticks="679" durationTicks="25" ppq="96" velocity="0.717"/>
      <note number="4" values="38" ticks="725" durationTicks="27" ppq="96" velocity="0.759"/>
      <note number="5" values="38" ticks="775" durationTicks="26" ppq="96" velocity="0.719"/>
      <note number="6" values="38" ticks="821" durationTicks="27" ppq="96" velocity="0.819"/>
      <note number="7" values="58" ticks="869" durationTicks="78" ppq="96" velocity="0.844"/>
      <note number="8" values="58" ticks="968" durationTicks="29" ppq="96" velocity="0.852"/>
      <note number="9" values="58" ticks="1016" durationTicks="46" ppq="96" velocity="0.844"/>
      <note number="10" values="28" ticks="1064" durationTicks="92" ppq="96" velocity="0.844"/>
      <note number="11" values="18" ticks="1155" durationTicks="95" ppq="96" velocity="0.844"/>
    </notes>
  </exercise>
</level>
